# xmcd
#
# Track frame offsets:
#	150
#	17587
#	37574
#	56511
#	74773
#	94535
#	114672
#	131209
#	146246
#	161583
#	179845
#	196532
#	215769
#	230806
#	244493
#
# Disc length: 3425 seconds
#
# Revision: 0
# Processed by: cddbd v1.5.2PL0 Copyright (c) Steve Scherf et al.
# Submitted via: EasyCDDAExtractor 15.3.0.1
#
DISCID=e20d5f0f
DTITLE=Daniela Romo - La Voz Del Corazon
DYEAR=2015
DGENRE=Latin
TTITLE0=Algo Del Alma
TTITLE1=Despedida
TTITLE2=Te Busco (Dueto Con Leonel Garcia)
TTITLE3=Hoy Te Pido Perdon
TTITLE4=Polvo De Estrellas
TTITLE5=Amarte Asi
TTITLE6=La Voz Del Corazon
TTITLE7=Despeinada
TTITLE8=Dime
TTITLE9=La Voz Del Corazon (Dueto Con Gianmarco)
TTITLE10=Es Evidente
TTITLE11=Sentir Asi
TTITLE12=Tu Lo Has Querido (Dueto Con Lupe Esparza)
TTITLE13=Resulta
TTITLE14=Esa Mujer
EXTD=
EXTT0=
EXTT1=
EXTT2=
EXTT3=
EXTT4=
EXTT5=
EXTT6=
EXTT7=
EXTT8=
EXTT9=
EXTT10=
EXTT11=
EXTT12=
EXTT13=
EXTT14=
PLAYORDER=
